<?xml version="1.0" encoding="utf-8"?>
<!-- Generator: Adobe Illustrator 19.0.0, SVG Export Plug-In . SVG Version: 6.00 Build 0)  -->
<svg version="1.1" id="Layer_1" xmlns="http://www.w3.org/2000/svg" xmlns:xlink="http://www.w3.org/1999/xlink" x="0px" y="0px"
	 viewBox="0 0 500 500" style="enable-background:new 0 0 500 500;" xml:space="preserve">
<g id="XMLID_1_">
	<path id="XMLID_5_" d="M400.5,119.8c-1.1-28.3-25.9-34.2-25.9-34.2s-86.1-13-123.8-17.7c-37.7-4.7-35.4,31.8-35.4,31.8
		s8.6,266.4,9.5,299.4c1,39.3,37.7,33,37.7,33l129.7-22.4c23.6-4.7,24.7-34.2,24.7-34.2S401.7,150.6,400.5,119.8
		C399.4,91.5,401.7,150.6,400.5,119.8z M371.5,346.1l-96.4,10c0,0-28.1,4.3-28.7-29.8c-0.5-25.1-6-169.1-6-169.1s-1.9-26.4,27-24.2
		c29.5,2.2,100.2,7.6,100.2,7.6s18.9,4.5,19.7,26.1c0.9,23.4,9.1,153.6,9.1,153.6S398.4,341.5,371.5,346.1z"/>
	<path id="XMLID_6_" d="M135.4,307.3l-17.8,1.3c0,0-18,2.4-18.4-17.2c-0.3-14.5-2.1-96.7-2.1-96.7s-1.2-15.2,17.2-14
		c4.7,0.3,11.3,0.7,18.7,1.2c-0.3-13.6-0.5-25.6-0.6-34.6c-10.2-0.8-19.7-1.6-26.5-2.3C81.5,142.1,83,162.6,83,162.6
		s2.9,150.8,3.5,169.3c0.7,22,24.4,18.5,24.4,18.5l25.3-2.7C136,336.8,135.7,322.8,135.4,307.3z"/>
	<path id="XMLID_7_" d="M206.3,170.2c-0.1-1.9-0.4-3.7-0.9-5.2c-7.8-0.6-27.4-5.7-33.7,0.9c-4,4.2-2.3,13-2.2,18
		c8.4,0.5,14.2,0.8,14.2,0.8s12.1,2.6,12.6,15c0.6,13.5,0.5,89.3,0.5,89.3s1.4,12.4-15.8,15l-9,0.7c0,2.7,0.1,4.9,0.1,6.5
		c0.4,21.6,23.4,14.7,37.8,13.3c1.2-22.9-1-46.5-1.5-69.5C207.8,226.6,207.6,198.3,206.3,170.2C206.2,168.2,207.1,187.4,206.3,170.2
		z"/>
	<path id="XMLID_8_" d="M213.7,333.2l-26,2.5c0,0-24.2,3.5-24.7-24.4c-0.4-20.6-2.8-137.4-2.8-137.4s-1.7-21.6,23.2-19.9
		c6.4,0.4,15.2,1.2,24.7,1.9c-0.7-22.4-1.3-40.1-1.6-49.2c-13.1-1.3-25.4-2.6-34.6-3.6c-32.9-3.7-30.8,25.3-30.8,25.3
		s3.9,214.2,4.7,240.3c0.9,31.3,32.9,26.3,32.9,26.3l36.8-4.7C215.1,378.2,214.5,357.7,213.7,333.2z"/>
	<path id="XMLID_9_" d="M266.6,142c-4.6-0.4-10.2-0.1-13.6,3.5c-3.6,3.8-3.7,9.1-3.5,14c13,1.1,22.5,2,22.5,2s16.3,3.7,17,21.3
		c0.8,19.2,5.4,123.4,5.4,123.4s1.8,17.5-21.3,21.3l-17.5,1.7c2.3,27.4,37.7,15.8,55.9,14c-1.9-41.2-7.6-168.6-8.9-198.5
		C288.8,143.6,275.7,142.6,266.6,142C265.7,141.9,275.7,142.6,266.6,142z"/>
</g>
</svg>
